<svg width="219" height="246" viewBox="0 0 219 246" fill="none" xmlns="http://www.w3.org/2000/svg">
<path d="M148.14 66.3044C147.995 65.9788 139.357 50.928 128.944 32.8597C118.531 14.7915 109.781 0.00408421 109.5 0C109.219 -0.00408224 101.651 12.7386 92.6831 28.3161C83.7153 43.8947 70.5252 66.7464 63.3709 79.0982C22.1088 150.339 0 188.919 0 189.679C0 190.154 4.54066 192.911 10.0914 195.806L20.1828 201.07L26.7989 189.593C30.4369 183.281 41.1587 164.679 50.6228 148.255L67.8327 118.392L109.507 139.725L129.122 129.615C139.91 124.054 149.31 119.285 150.01 119.018C150.812 118.711 157.741 129.761 168.767 148.929C178.384 165.649 186.252 179.605 186.252 179.943C186.252 180.678 174.704 186.838 137.355 206.028L109.437 220.373L81.729 206.134C66.489 198.304 53.6612 191.897 53.2211 191.897C52.3369 191.897 41.958 209.692 41.958 211.209C41.958 212.251 107.493 246 109.516 246C111.313 246 219 190.655 219 189.732C219 188.843 161.942 89.7656 160.652 88.4141C160.176 87.9149 148.703 93.2139 134.637 100.43L109.474 113.338L95.1913 106.123C87.335 102.155 80.6892 98.5558 80.4221 98.126C79.9278 97.3277 108.568 46.9387 109.5 46.9642C109.781 46.9724 113.883 53.7465 118.615 62.0181C123.346 70.2897 127.349 77.2199 127.507 77.42C127.964 77.9937 148.435 66.9659 148.14 66.3044Z" fill="#8D00F7"/>
</svg>
